<mxfile host="app.diagrams.net" modified="2024-04-01T11:33:32.299Z" agent="Mozilla/5.0 (Windows NT 10.0; Win64; x64) AppleWebKit/537.36 (KHTML, like Gecko) Chrome/123.0.0.0 Safari/537.36" etag="1d8p9gSDAsq0J7jX2w0d" version="24.2.1" type="device">
  <diagram id="C5RBs43oDa-KdzZeNtuy" name="Page-1">
    <mxGraphModel dx="1444" dy="764" grid="1" gridSize="10" guides="1" tooltips="1" connect="1" arrows="1" fold="1" page="1" pageScale="1" pageWidth="827" pageHeight="1169" math="0" shadow="0">
      <root>
        <mxCell id="WIyWlLk6GJQsqaUBKTNV-0" />
        <mxCell id="WIyWlLk6GJQsqaUBKTNV-1" parent="WIyWlLk6GJQsqaUBKTNV-0" />
        <mxCell id="8xYL1COik4NsorKuCAte-2" value="Clientes" style="rounded=0;whiteSpace=wrap;html=1;fontFamily=Times New Roman;" parent="WIyWlLk6GJQsqaUBKTNV-1" vertex="1">
          <mxGeometry x="290" y="520" width="120" height="50" as="geometry" />
        </mxCell>
        <mxCell id="8xYL1COik4NsorKuCAte-5" value="&lt;font face=&quot;Times New Roman&quot;&gt;ID_Cliente&lt;/font&gt;" style="ellipse;whiteSpace=wrap;html=1;fontStyle=4" parent="WIyWlLk6GJQsqaUBKTNV-1" vertex="1">
          <mxGeometry x="40" y="460" width="90" height="40" as="geometry" />
        </mxCell>
        <mxCell id="8xYL1COik4NsorKuCAte-6" value="" style="endArrow=none;html=1;rounded=0;entryX=0.661;entryY=0.983;entryDx=0;entryDy=0;entryPerimeter=0;exitX=0.25;exitY=0;exitDx=0;exitDy=0;" parent="WIyWlLk6GJQsqaUBKTNV-1" source="8xYL1COik4NsorKuCAte-2" target="8xYL1COik4NsorKuCAte-5" edge="1">
          <mxGeometry width="50" height="50" relative="1" as="geometry">
            <mxPoint x="500" y="660" as="sourcePoint" />
            <mxPoint x="490" y="600" as="targetPoint" />
          </mxGeometry>
        </mxCell>
        <mxCell id="8xYL1COik4NsorKuCAte-8" value="Nome" style="ellipse;whiteSpace=wrap;html=1;fontFamily=Times New Roman;" parent="WIyWlLk6GJQsqaUBKTNV-1" vertex="1">
          <mxGeometry x="120" y="420" width="90" height="40" as="geometry" />
        </mxCell>
        <mxCell id="8xYL1COik4NsorKuCAte-10" value="P_nome" style="ellipse;whiteSpace=wrap;html=1;fontFamily=Times New Roman;" parent="WIyWlLk6GJQsqaUBKTNV-1" vertex="1">
          <mxGeometry x="70" y="370" width="90" height="40" as="geometry" />
        </mxCell>
        <mxCell id="8xYL1COik4NsorKuCAte-11" value="Sobrenome" style="ellipse;whiteSpace=wrap;html=1;fontFamily=Times New Roman;" parent="WIyWlLk6GJQsqaUBKTNV-1" vertex="1">
          <mxGeometry x="150" y="330" width="90" height="40" as="geometry" />
        </mxCell>
        <mxCell id="8xYL1COik4NsorKuCAte-12" value="" style="endArrow=none;html=1;rounded=0;entryX=0.5;entryY=1;entryDx=0;entryDy=0;" parent="WIyWlLk6GJQsqaUBKTNV-1" source="8xYL1COik4NsorKuCAte-2" target="8xYL1COik4NsorKuCAte-8" edge="1">
          <mxGeometry width="50" height="50" relative="1" as="geometry">
            <mxPoint x="500" y="660" as="sourcePoint" />
            <mxPoint x="550" y="610" as="targetPoint" />
          </mxGeometry>
        </mxCell>
        <mxCell id="8xYL1COik4NsorKuCAte-13" value="" style="endArrow=none;html=1;rounded=0;entryX=0.5;entryY=1;entryDx=0;entryDy=0;exitX=0;exitY=0;exitDx=0;exitDy=0;" parent="WIyWlLk6GJQsqaUBKTNV-1" source="8xYL1COik4NsorKuCAte-8" target="8xYL1COik4NsorKuCAte-10" edge="1">
          <mxGeometry width="50" height="50" relative="1" as="geometry">
            <mxPoint x="340" y="630" as="sourcePoint" />
            <mxPoint x="390" y="580" as="targetPoint" />
          </mxGeometry>
        </mxCell>
        <mxCell id="8xYL1COik4NsorKuCAte-14" value="" style="endArrow=none;html=1;rounded=0;entryX=0;entryY=1;entryDx=0;entryDy=0;" parent="WIyWlLk6GJQsqaUBKTNV-1" source="8xYL1COik4NsorKuCAte-8" target="8xYL1COik4NsorKuCAte-11" edge="1">
          <mxGeometry width="50" height="50" relative="1" as="geometry">
            <mxPoint x="340" y="630" as="sourcePoint" />
            <mxPoint x="390" y="580" as="targetPoint" />
          </mxGeometry>
        </mxCell>
        <mxCell id="8xYL1COik4NsorKuCAte-16" value="Endereço" style="ellipse;whiteSpace=wrap;html=1;fontFamily=Times New Roman;" parent="WIyWlLk6GJQsqaUBKTNV-1" vertex="1">
          <mxGeometry x="140" y="570" width="90" height="40" as="geometry" />
        </mxCell>
        <mxCell id="8xYL1COik4NsorKuCAte-17" value="Histórico_compras" style="ellipse;whiteSpace=wrap;html=1;fontSize=11;fontFamily=Times New Roman;" parent="WIyWlLk6GJQsqaUBKTNV-1" vertex="1">
          <mxGeometry x="220" y="610" width="90" height="40" as="geometry" />
        </mxCell>
        <mxCell id="8xYL1COik4NsorKuCAte-19" value="Email" style="ellipse;whiteSpace=wrap;html=1;fontFamily=Times New Roman;" parent="WIyWlLk6GJQsqaUBKTNV-1" vertex="1">
          <mxGeometry x="130" y="520" width="90" height="40" as="geometry" />
        </mxCell>
        <mxCell id="8xYL1COik4NsorKuCAte-20" value="" style="endArrow=none;html=1;rounded=0;entryX=1;entryY=0.5;entryDx=0;entryDy=0;exitX=0;exitY=0.5;exitDx=0;exitDy=0;" parent="WIyWlLk6GJQsqaUBKTNV-1" source="8xYL1COik4NsorKuCAte-2" target="8xYL1COik4NsorKuCAte-19" edge="1">
          <mxGeometry width="50" height="50" relative="1" as="geometry">
            <mxPoint x="500" y="660" as="sourcePoint" />
            <mxPoint x="550" y="610" as="targetPoint" />
          </mxGeometry>
        </mxCell>
        <mxCell id="8xYL1COik4NsorKuCAte-21" value="" style="endArrow=none;html=1;rounded=0;entryX=0;entryY=0.75;entryDx=0;entryDy=0;exitX=1;exitY=0.5;exitDx=0;exitDy=0;" parent="WIyWlLk6GJQsqaUBKTNV-1" source="8xYL1COik4NsorKuCAte-16" target="8xYL1COik4NsorKuCAte-2" edge="1">
          <mxGeometry width="50" height="50" relative="1" as="geometry">
            <mxPoint x="230" y="620" as="sourcePoint" />
            <mxPoint x="280" y="570" as="targetPoint" />
          </mxGeometry>
        </mxCell>
        <mxCell id="8xYL1COik4NsorKuCAte-22" value="" style="endArrow=none;html=1;rounded=0;entryX=0.25;entryY=1;entryDx=0;entryDy=0;" parent="WIyWlLk6GJQsqaUBKTNV-1" source="8xYL1COik4NsorKuCAte-17" target="8xYL1COik4NsorKuCAte-2" edge="1">
          <mxGeometry width="50" height="50" relative="1" as="geometry">
            <mxPoint x="500" y="660" as="sourcePoint" />
            <mxPoint x="550" y="610" as="targetPoint" />
          </mxGeometry>
        </mxCell>
        <mxCell id="8xYL1COik4NsorKuCAte-23" value="Faz" style="rhombus;whiteSpace=wrap;html=1;fontFamily=Times New Roman;" parent="WIyWlLk6GJQsqaUBKTNV-1" vertex="1">
          <mxGeometry x="440" y="520" width="80" height="50" as="geometry" />
        </mxCell>
        <mxCell id="8xYL1COik4NsorKuCAte-24" value="" style="endArrow=none;html=1;rounded=0;exitX=1;exitY=0.5;exitDx=0;exitDy=0;entryX=0;entryY=0.5;entryDx=0;entryDy=0;" parent="WIyWlLk6GJQsqaUBKTNV-1" source="8xYL1COik4NsorKuCAte-2" target="8xYL1COik4NsorKuCAte-23" edge="1">
          <mxGeometry width="50" height="50" relative="1" as="geometry">
            <mxPoint x="500" y="660" as="sourcePoint" />
            <mxPoint x="550" y="610" as="targetPoint" />
          </mxGeometry>
        </mxCell>
        <mxCell id="8xYL1COik4NsorKuCAte-25" value="Pedido" style="rounded=0;whiteSpace=wrap;html=1;fontFamily=Times New Roman;" parent="WIyWlLk6GJQsqaUBKTNV-1" vertex="1">
          <mxGeometry x="570" y="520" width="120" height="50" as="geometry" />
        </mxCell>
        <mxCell id="8xYL1COik4NsorKuCAte-27" value="ID_Pedido" style="ellipse;whiteSpace=wrap;html=1;fontFamily=Times New Roman;fontStyle=4" parent="WIyWlLk6GJQsqaUBKTNV-1" vertex="1">
          <mxGeometry x="550" y="410" width="90" height="40" as="geometry" />
        </mxCell>
        <mxCell id="8xYL1COik4NsorKuCAte-28" value="Status" style="ellipse;whiteSpace=wrap;html=1;fontFamily=Times New Roman;" parent="WIyWlLk6GJQsqaUBKTNV-1" vertex="1">
          <mxGeometry x="660" y="430" width="90" height="40" as="geometry" />
        </mxCell>
        <mxCell id="8xYL1COik4NsorKuCAte-29" value="Método_entrega" style="ellipse;whiteSpace=wrap;html=1;fontFamily=Times New Roman;" parent="WIyWlLk6GJQsqaUBKTNV-1" vertex="1">
          <mxGeometry x="737" y="470" width="90" height="40" as="geometry" />
        </mxCell>
        <mxCell id="8xYL1COik4NsorKuCAte-30" value="Avaliação_cliente" style="ellipse;whiteSpace=wrap;html=1;fontFamily=Times New Roman;" parent="WIyWlLk6GJQsqaUBKTNV-1" vertex="1">
          <mxGeometry x="737" y="525" width="90" height="40" as="geometry" />
        </mxCell>
        <mxCell id="8xYL1COik4NsorKuCAte-31" value="Comentário_cliente" style="ellipse;whiteSpace=wrap;html=1;fontFamily=Times New Roman;fontSize=10;" parent="WIyWlLk6GJQsqaUBKTNV-1" vertex="1">
          <mxGeometry x="737" y="593" width="90" height="40" as="geometry" />
        </mxCell>
        <mxCell id="8xYL1COik4NsorKuCAte-32" value="Data_compra" style="ellipse;whiteSpace=wrap;html=1;fontFamily=Times New Roman;fontSize=11;" parent="WIyWlLk6GJQsqaUBKTNV-1" vertex="1">
          <mxGeometry x="450" y="460" width="70" height="40" as="geometry" />
        </mxCell>
        <mxCell id="8xYL1COik4NsorKuCAte-33" value="" style="endArrow=none;html=1;rounded=0;entryX=0.5;entryY=1;entryDx=0;entryDy=0;exitX=0;exitY=0;exitDx=0;exitDy=0;" parent="WIyWlLk6GJQsqaUBKTNV-1" source="8xYL1COik4NsorKuCAte-23" target="8xYL1COik4NsorKuCAte-32" edge="1">
          <mxGeometry width="50" height="50" relative="1" as="geometry">
            <mxPoint x="500" y="660" as="sourcePoint" />
            <mxPoint x="550" y="610" as="targetPoint" />
          </mxGeometry>
        </mxCell>
        <mxCell id="8xYL1COik4NsorKuCAte-34" value="" style="endArrow=none;html=1;rounded=0;entryX=0;entryY=0.5;entryDx=0;entryDy=0;exitX=1;exitY=0.5;exitDx=0;exitDy=0;" parent="WIyWlLk6GJQsqaUBKTNV-1" source="8xYL1COik4NsorKuCAte-23" target="8xYL1COik4NsorKuCAte-25" edge="1">
          <mxGeometry width="50" height="50" relative="1" as="geometry">
            <mxPoint x="500" y="660" as="sourcePoint" />
            <mxPoint x="550" y="610" as="targetPoint" />
          </mxGeometry>
        </mxCell>
        <mxCell id="8xYL1COik4NsorKuCAte-35" value="" style="endArrow=none;html=1;rounded=0;entryX=0.5;entryY=1;entryDx=0;entryDy=0;exitX=0.25;exitY=0;exitDx=0;exitDy=0;" parent="WIyWlLk6GJQsqaUBKTNV-1" source="8xYL1COik4NsorKuCAte-25" target="8xYL1COik4NsorKuCAte-27" edge="1">
          <mxGeometry width="50" height="50" relative="1" as="geometry">
            <mxPoint x="500" y="660" as="sourcePoint" />
            <mxPoint x="550" y="610" as="targetPoint" />
          </mxGeometry>
        </mxCell>
        <mxCell id="8xYL1COik4NsorKuCAte-36" value="" style="endArrow=none;html=1;rounded=0;entryX=0;entryY=1;entryDx=0;entryDy=0;exitX=0.5;exitY=0;exitDx=0;exitDy=0;" parent="WIyWlLk6GJQsqaUBKTNV-1" source="8xYL1COik4NsorKuCAte-25" target="8xYL1COik4NsorKuCAte-28" edge="1">
          <mxGeometry width="50" height="50" relative="1" as="geometry">
            <mxPoint x="500" y="660" as="sourcePoint" />
            <mxPoint x="550" y="610" as="targetPoint" />
          </mxGeometry>
        </mxCell>
        <mxCell id="8xYL1COik4NsorKuCAte-37" value="" style="endArrow=none;html=1;rounded=0;entryX=0;entryY=1;entryDx=0;entryDy=0;exitX=0.75;exitY=0;exitDx=0;exitDy=0;" parent="WIyWlLk6GJQsqaUBKTNV-1" source="8xYL1COik4NsorKuCAte-25" target="8xYL1COik4NsorKuCAte-29" edge="1">
          <mxGeometry width="50" height="50" relative="1" as="geometry">
            <mxPoint x="500" y="660" as="sourcePoint" />
            <mxPoint x="550" y="610" as="targetPoint" />
          </mxGeometry>
        </mxCell>
        <mxCell id="8xYL1COik4NsorKuCAte-38" value="" style="endArrow=none;html=1;rounded=0;entryX=0;entryY=0.5;entryDx=0;entryDy=0;exitX=1;exitY=0.5;exitDx=0;exitDy=0;" parent="WIyWlLk6GJQsqaUBKTNV-1" source="8xYL1COik4NsorKuCAte-25" target="8xYL1COik4NsorKuCAte-30" edge="1">
          <mxGeometry width="50" height="50" relative="1" as="geometry">
            <mxPoint x="500" y="660" as="sourcePoint" />
            <mxPoint x="550" y="610" as="targetPoint" />
          </mxGeometry>
        </mxCell>
        <mxCell id="8xYL1COik4NsorKuCAte-39" value="" style="endArrow=none;html=1;rounded=0;entryX=0.019;entryY=0.298;entryDx=0;entryDy=0;entryPerimeter=0;exitX=0.75;exitY=1;exitDx=0;exitDy=0;" parent="WIyWlLk6GJQsqaUBKTNV-1" source="8xYL1COik4NsorKuCAte-25" target="8xYL1COik4NsorKuCAte-31" edge="1">
          <mxGeometry width="50" height="50" relative="1" as="geometry">
            <mxPoint x="500" y="660" as="sourcePoint" />
            <mxPoint x="550" y="610" as="targetPoint" />
          </mxGeometry>
        </mxCell>
        <mxCell id="8xYL1COik4NsorKuCAte-40" value="Pagamentos" style="rounded=0;whiteSpace=wrap;html=1;fontFamily=Times New Roman;" parent="WIyWlLk6GJQsqaUBKTNV-1" vertex="1">
          <mxGeometry x="570" y="670" width="120" height="50" as="geometry" />
        </mxCell>
        <mxCell id="8xYL1COik4NsorKuCAte-42" value="Método" style="ellipse;whiteSpace=wrap;html=1;fontFamily=Times New Roman;" parent="WIyWlLk6GJQsqaUBKTNV-1" vertex="1">
          <mxGeometry x="720" y="720" width="90" height="40" as="geometry" />
        </mxCell>
        <mxCell id="8xYL1COik4NsorKuCAte-43" value="ID_Pagamento" style="ellipse;whiteSpace=wrap;html=1;fontFamily=Times New Roman;fontStyle=4" parent="WIyWlLk6GJQsqaUBKTNV-1" vertex="1">
          <mxGeometry x="737" y="660" width="90" height="40" as="geometry" />
        </mxCell>
        <mxCell id="8xYL1COik4NsorKuCAte-44" value="Status" style="ellipse;whiteSpace=wrap;html=1;fontFamily=Times New Roman;" parent="WIyWlLk6GJQsqaUBKTNV-1" vertex="1">
          <mxGeometry x="700" y="770" width="90" height="40" as="geometry" />
        </mxCell>
        <mxCell id="8xYL1COik4NsorKuCAte-45" value="Data_pagamento" style="ellipse;whiteSpace=wrap;html=1;fontFamily=Times New Roman;" parent="WIyWlLk6GJQsqaUBKTNV-1" vertex="1">
          <mxGeometry x="585" y="770" width="90" height="40" as="geometry" />
        </mxCell>
        <mxCell id="8xYL1COik4NsorKuCAte-46" value="Valor_total" style="ellipse;whiteSpace=wrap;html=1;fontFamily=Times New Roman;" parent="WIyWlLk6GJQsqaUBKTNV-1" vertex="1">
          <mxGeometry x="489" y="760" width="90" height="40" as="geometry" />
        </mxCell>
        <mxCell id="8xYL1COik4NsorKuCAte-47" value="" style="endArrow=none;html=1;rounded=0;entryX=0;entryY=0.5;entryDx=0;entryDy=0;exitX=1;exitY=0.25;exitDx=0;exitDy=0;" parent="WIyWlLk6GJQsqaUBKTNV-1" source="8xYL1COik4NsorKuCAte-40" target="8xYL1COik4NsorKuCAte-43" edge="1">
          <mxGeometry width="50" height="50" relative="1" as="geometry">
            <mxPoint x="500" y="660" as="sourcePoint" />
            <mxPoint x="550" y="610" as="targetPoint" />
          </mxGeometry>
        </mxCell>
        <mxCell id="8xYL1COik4NsorKuCAte-48" value="" style="endArrow=none;html=1;rounded=0;entryX=0;entryY=0.5;entryDx=0;entryDy=0;exitX=1;exitY=0.75;exitDx=0;exitDy=0;" parent="WIyWlLk6GJQsqaUBKTNV-1" source="8xYL1COik4NsorKuCAte-40" target="8xYL1COik4NsorKuCAte-42" edge="1">
          <mxGeometry width="50" height="50" relative="1" as="geometry">
            <mxPoint x="500" y="660" as="sourcePoint" />
            <mxPoint x="550" y="610" as="targetPoint" />
          </mxGeometry>
        </mxCell>
        <mxCell id="8xYL1COik4NsorKuCAte-49" value="" style="endArrow=none;html=1;rounded=0;entryX=0;entryY=0;entryDx=0;entryDy=0;exitX=0.75;exitY=1;exitDx=0;exitDy=0;" parent="WIyWlLk6GJQsqaUBKTNV-1" source="8xYL1COik4NsorKuCAte-40" target="8xYL1COik4NsorKuCAte-44" edge="1">
          <mxGeometry width="50" height="50" relative="1" as="geometry">
            <mxPoint x="500" y="660" as="sourcePoint" />
            <mxPoint x="550" y="610" as="targetPoint" />
          </mxGeometry>
        </mxCell>
        <mxCell id="8xYL1COik4NsorKuCAte-50" value="" style="endArrow=none;html=1;rounded=0;exitX=0.5;exitY=0;exitDx=0;exitDy=0;entryX=0.5;entryY=1;entryDx=0;entryDy=0;" parent="WIyWlLk6GJQsqaUBKTNV-1" source="8xYL1COik4NsorKuCAte-45" target="8xYL1COik4NsorKuCAte-40" edge="1">
          <mxGeometry width="50" height="50" relative="1" as="geometry">
            <mxPoint x="500" y="660" as="sourcePoint" />
            <mxPoint x="550" y="610" as="targetPoint" />
          </mxGeometry>
        </mxCell>
        <mxCell id="8xYL1COik4NsorKuCAte-51" value="" style="endArrow=none;html=1;rounded=0;exitX=0.5;exitY=0;exitDx=0;exitDy=0;entryX=0.25;entryY=1;entryDx=0;entryDy=0;" parent="WIyWlLk6GJQsqaUBKTNV-1" source="8xYL1COik4NsorKuCAte-46" target="8xYL1COik4NsorKuCAte-40" edge="1">
          <mxGeometry width="50" height="50" relative="1" as="geometry">
            <mxPoint x="500" y="660" as="sourcePoint" />
            <mxPoint x="550" y="610" as="targetPoint" />
          </mxGeometry>
        </mxCell>
        <mxCell id="8xYL1COik4NsorKuCAte-52" value="conter" style="rhombus;whiteSpace=wrap;html=1;fontFamily=Times New Roman;" parent="WIyWlLk6GJQsqaUBKTNV-1" vertex="1">
          <mxGeometry x="420" y="610" width="80" height="50" as="geometry" />
        </mxCell>
        <mxCell id="8xYL1COik4NsorKuCAte-53" value="Associado" style="rhombus;whiteSpace=wrap;html=1;fontFamily=Times New Roman;" parent="WIyWlLk6GJQsqaUBKTNV-1" vertex="1">
          <mxGeometry x="585" y="595" width="80" height="50" as="geometry" />
        </mxCell>
        <mxCell id="8xYL1COik4NsorKuCAte-55" value="" style="endArrow=none;html=1;rounded=0;" parent="WIyWlLk6GJQsqaUBKTNV-1" edge="1">
          <mxGeometry width="50" height="50" relative="1" as="geometry">
            <mxPoint x="550" y="740" as="sourcePoint" />
            <mxPoint x="550" y="510" as="targetPoint" />
          </mxGeometry>
        </mxCell>
        <mxCell id="8xYL1COik4NsorKuCAte-56" value="" style="endArrow=none;html=1;rounded=0;" parent="WIyWlLk6GJQsqaUBKTNV-1" edge="1">
          <mxGeometry width="50" height="50" relative="1" as="geometry">
            <mxPoint x="550" y="740" as="sourcePoint" />
            <mxPoint x="710" y="740" as="targetPoint" />
          </mxGeometry>
        </mxCell>
        <mxCell id="8xYL1COik4NsorKuCAte-57" value="" style="endArrow=none;html=1;rounded=0;" parent="WIyWlLk6GJQsqaUBKTNV-1" edge="1">
          <mxGeometry width="50" height="50" relative="1" as="geometry">
            <mxPoint x="710" y="510" as="sourcePoint" />
            <mxPoint x="550" y="510" as="targetPoint" />
          </mxGeometry>
        </mxCell>
        <mxCell id="8xYL1COik4NsorKuCAte-58" value="" style="endArrow=none;html=1;rounded=0;" parent="WIyWlLk6GJQsqaUBKTNV-1" edge="1">
          <mxGeometry width="50" height="50" relative="1" as="geometry">
            <mxPoint x="710" y="740" as="sourcePoint" />
            <mxPoint x="710" y="510" as="targetPoint" />
          </mxGeometry>
        </mxCell>
        <mxCell id="8xYL1COik4NsorKuCAte-59" value="" style="endArrow=none;html=1;rounded=0;entryX=0.5;entryY=1;entryDx=0;entryDy=0;exitX=0.5;exitY=0;exitDx=0;exitDy=0;" parent="WIyWlLk6GJQsqaUBKTNV-1" source="8xYL1COik4NsorKuCAte-53" target="8xYL1COik4NsorKuCAte-25" edge="1">
          <mxGeometry width="50" height="50" relative="1" as="geometry">
            <mxPoint x="500" y="660" as="sourcePoint" />
            <mxPoint x="550" y="610" as="targetPoint" />
          </mxGeometry>
        </mxCell>
        <mxCell id="8xYL1COik4NsorKuCAte-61" value="Desconto" style="ellipse;whiteSpace=wrap;html=1;fontFamily=Times New Roman;fontSize=11;" parent="WIyWlLk6GJQsqaUBKTNV-1" vertex="1">
          <mxGeometry x="360" y="595" width="70" height="40" as="geometry" />
        </mxCell>
        <mxCell id="8xYL1COik4NsorKuCAte-62" value="" style="endArrow=none;html=1;rounded=0;entryX=0.976;entryY=0.305;entryDx=0;entryDy=0;entryPerimeter=0;exitX=0;exitY=0;exitDx=0;exitDy=0;" parent="WIyWlLk6GJQsqaUBKTNV-1" source="8xYL1COik4NsorKuCAte-52" target="8xYL1COik4NsorKuCAte-61" edge="1">
          <mxGeometry width="50" height="50" relative="1" as="geometry">
            <mxPoint x="500" y="660" as="sourcePoint" />
            <mxPoint x="550" y="610" as="targetPoint" />
          </mxGeometry>
        </mxCell>
        <mxCell id="8xYL1COik4NsorKuCAte-63" value="Produtos" style="rounded=0;whiteSpace=wrap;html=1;fontFamily=Times New Roman;" parent="WIyWlLk6GJQsqaUBKTNV-1" vertex="1">
          <mxGeometry x="250" y="670" width="120" height="50" as="geometry" />
        </mxCell>
        <mxCell id="8xYL1COik4NsorKuCAte-66" value="ID_Produto" style="ellipse;whiteSpace=wrap;html=1;fontFamily=Times New Roman;fontStyle=4" parent="WIyWlLk6GJQsqaUBKTNV-1" vertex="1">
          <mxGeometry x="130" y="650" width="90" height="40" as="geometry" />
        </mxCell>
        <mxCell id="8xYL1COik4NsorKuCAte-67" value="Nome" style="ellipse;whiteSpace=wrap;html=1;fontFamily=Times New Roman;" parent="WIyWlLk6GJQsqaUBKTNV-1" vertex="1">
          <mxGeometry x="60" y="690" width="90" height="40" as="geometry" />
        </mxCell>
        <mxCell id="8xYL1COik4NsorKuCAte-68" value="Descrição" style="ellipse;whiteSpace=wrap;html=1;fontFamily=Times New Roman;" parent="WIyWlLk6GJQsqaUBKTNV-1" vertex="1">
          <mxGeometry y="730" width="90" height="40" as="geometry" />
        </mxCell>
        <mxCell id="8xYL1COik4NsorKuCAte-69" value="Preço" style="ellipse;whiteSpace=wrap;html=1;fontFamily=Times New Roman;" parent="WIyWlLk6GJQsqaUBKTNV-1" vertex="1">
          <mxGeometry x="120" y="810" width="90" height="40" as="geometry" />
        </mxCell>
        <mxCell id="8xYL1COik4NsorKuCAte-70" value="Categoria" style="ellipse;whiteSpace=wrap;html=1;fontFamily=Times New Roman;" parent="WIyWlLk6GJQsqaUBKTNV-1" vertex="1">
          <mxGeometry x="320" y="830" width="90" height="40" as="geometry" />
        </mxCell>
        <mxCell id="8xYL1COik4NsorKuCAte-71" value="Avaliação_média" style="ellipse;whiteSpace=wrap;html=1;fontFamily=Times New Roman;" parent="WIyWlLk6GJQsqaUBKTNV-1" vertex="1">
          <mxGeometry x="220" y="830" width="90" height="40" as="geometry" />
        </mxCell>
        <mxCell id="8xYL1COik4NsorKuCAte-72" style="edgeStyle=orthogonalEdgeStyle;rounded=0;orthogonalLoop=1;jettySize=auto;html=1;exitX=0.5;exitY=1;exitDx=0;exitDy=0;" parent="WIyWlLk6GJQsqaUBKTNV-1" source="8xYL1COik4NsorKuCAte-67" target="8xYL1COik4NsorKuCAte-67" edge="1">
          <mxGeometry relative="1" as="geometry" />
        </mxCell>
        <mxCell id="8xYL1COik4NsorKuCAte-73" style="edgeStyle=orthogonalEdgeStyle;rounded=0;orthogonalLoop=1;jettySize=auto;html=1;exitX=0.5;exitY=1;exitDx=0;exitDy=0;" parent="WIyWlLk6GJQsqaUBKTNV-1" edge="1">
          <mxGeometry relative="1" as="geometry">
            <mxPoint x="280" y="895" as="sourcePoint" />
            <mxPoint x="280" y="895" as="targetPoint" />
          </mxGeometry>
        </mxCell>
        <mxCell id="8xYL1COik4NsorKuCAte-74" value="Imagem" style="ellipse;whiteSpace=wrap;html=1;fontFamily=Times New Roman;" parent="WIyWlLk6GJQsqaUBKTNV-1" vertex="1">
          <mxGeometry x="30" y="800" width="90" height="40" as="geometry" />
        </mxCell>
        <mxCell id="8xYL1COik4NsorKuCAte-75" value="" style="endArrow=none;html=1;rounded=0;entryX=1;entryY=0.5;entryDx=0;entryDy=0;exitX=0;exitY=0.25;exitDx=0;exitDy=0;" parent="WIyWlLk6GJQsqaUBKTNV-1" source="8xYL1COik4NsorKuCAte-63" target="8xYL1COik4NsorKuCAte-66" edge="1">
          <mxGeometry width="50" height="50" relative="1" as="geometry">
            <mxPoint x="540" y="630" as="sourcePoint" />
            <mxPoint x="590" y="580" as="targetPoint" />
          </mxGeometry>
        </mxCell>
        <mxCell id="8xYL1COik4NsorKuCAte-76" value="" style="endArrow=none;html=1;rounded=0;entryX=1;entryY=0.5;entryDx=0;entryDy=0;exitX=0;exitY=0.5;exitDx=0;exitDy=0;" parent="WIyWlLk6GJQsqaUBKTNV-1" source="8xYL1COik4NsorKuCAte-63" target="8xYL1COik4NsorKuCAte-67" edge="1">
          <mxGeometry width="50" height="50" relative="1" as="geometry">
            <mxPoint x="540" y="630" as="sourcePoint" />
            <mxPoint x="590" y="580" as="targetPoint" />
          </mxGeometry>
        </mxCell>
        <mxCell id="8xYL1COik4NsorKuCAte-77" value="" style="endArrow=none;html=1;rounded=0;entryX=1;entryY=0.5;entryDx=0;entryDy=0;exitX=0;exitY=0.75;exitDx=0;exitDy=0;" parent="WIyWlLk6GJQsqaUBKTNV-1" source="8xYL1COik4NsorKuCAte-63" target="8xYL1COik4NsorKuCAte-68" edge="1">
          <mxGeometry width="50" height="50" relative="1" as="geometry">
            <mxPoint x="260" y="705" as="sourcePoint" />
            <mxPoint x="160" y="720" as="targetPoint" />
          </mxGeometry>
        </mxCell>
        <mxCell id="8xYL1COik4NsorKuCAte-78" value="" style="endArrow=none;html=1;rounded=0;entryX=0.5;entryY=0;entryDx=0;entryDy=0;exitX=0;exitY=1;exitDx=0;exitDy=0;" parent="WIyWlLk6GJQsqaUBKTNV-1" source="8xYL1COik4NsorKuCAte-63" target="8xYL1COik4NsorKuCAte-74" edge="1">
          <mxGeometry width="50" height="50" relative="1" as="geometry">
            <mxPoint x="260" y="720" as="sourcePoint" />
            <mxPoint x="170" y="730" as="targetPoint" />
          </mxGeometry>
        </mxCell>
        <mxCell id="8xYL1COik4NsorKuCAte-79" value="" style="endArrow=none;html=1;rounded=0;entryX=0.634;entryY=0.025;entryDx=0;entryDy=0;exitX=0.25;exitY=1;exitDx=0;exitDy=0;entryPerimeter=0;" parent="WIyWlLk6GJQsqaUBKTNV-1" source="8xYL1COik4NsorKuCAte-63" target="8xYL1COik4NsorKuCAte-69" edge="1">
          <mxGeometry width="50" height="50" relative="1" as="geometry">
            <mxPoint x="280" y="725" as="sourcePoint" />
            <mxPoint x="180" y="740" as="targetPoint" />
          </mxGeometry>
        </mxCell>
        <mxCell id="8xYL1COik4NsorKuCAte-80" value="" style="endArrow=none;html=1;rounded=0;entryX=0.5;entryY=0;entryDx=0;entryDy=0;exitX=0.5;exitY=1;exitDx=0;exitDy=0;" parent="WIyWlLk6GJQsqaUBKTNV-1" source="8xYL1COik4NsorKuCAte-63" target="8xYL1COik4NsorKuCAte-71" edge="1">
          <mxGeometry width="50" height="50" relative="1" as="geometry">
            <mxPoint x="290" y="735" as="sourcePoint" />
            <mxPoint x="190" y="750" as="targetPoint" />
          </mxGeometry>
        </mxCell>
        <mxCell id="8xYL1COik4NsorKuCAte-81" value="" style="endArrow=none;html=1;rounded=0;entryX=0.5;entryY=0;entryDx=0;entryDy=0;exitX=0.75;exitY=1;exitDx=0;exitDy=0;" parent="WIyWlLk6GJQsqaUBKTNV-1" source="8xYL1COik4NsorKuCAte-63" target="8xYL1COik4NsorKuCAte-70" edge="1">
          <mxGeometry width="50" height="50" relative="1" as="geometry">
            <mxPoint x="320" y="730" as="sourcePoint" />
            <mxPoint x="275" y="840" as="targetPoint" />
          </mxGeometry>
        </mxCell>
        <mxCell id="8xYL1COik4NsorKuCAte-82" value="1" style="text;html=1;align=center;verticalAlign=middle;resizable=0;points=[];autosize=1;strokeColor=none;fillColor=none;fontFamily=Times New Roman;" parent="WIyWlLk6GJQsqaUBKTNV-1" vertex="1">
          <mxGeometry x="420" y="520" width="30" height="30" as="geometry" />
        </mxCell>
        <mxCell id="8xYL1COik4NsorKuCAte-83" value="N" style="text;html=1;align=center;verticalAlign=middle;resizable=0;points=[];autosize=1;strokeColor=none;fillColor=none;fontFamily=Times New Roman;" parent="WIyWlLk6GJQsqaUBKTNV-1" vertex="1">
          <mxGeometry x="505" y="518" width="30" height="30" as="geometry" />
        </mxCell>
        <mxCell id="8xYL1COik4NsorKuCAte-84" value="N" style="text;html=1;align=center;verticalAlign=middle;resizable=0;points=[];autosize=1;strokeColor=none;fillColor=none;fontFamily=Times New Roman;" parent="WIyWlLk6GJQsqaUBKTNV-1" vertex="1">
          <mxGeometry x="485" y="598" width="30" height="30" as="geometry" />
        </mxCell>
        <mxCell id="8xYL1COik4NsorKuCAte-85" value="M" style="text;html=1;align=center;verticalAlign=middle;resizable=0;points=[];autosize=1;strokeColor=none;fillColor=none;fontFamily=Times New Roman;" parent="WIyWlLk6GJQsqaUBKTNV-1" vertex="1">
          <mxGeometry x="400" y="650" width="30" height="30" as="geometry" />
        </mxCell>
        <mxCell id="8xYL1COik4NsorKuCAte-86" value="1" style="text;html=1;align=center;verticalAlign=middle;resizable=0;points=[];autosize=1;strokeColor=none;fillColor=none;fontFamily=Times New Roman;" parent="WIyWlLk6GJQsqaUBKTNV-1" vertex="1">
          <mxGeometry x="595" y="578" width="30" height="30" as="geometry" />
        </mxCell>
        <mxCell id="8xYL1COik4NsorKuCAte-87" value="1" style="text;html=1;align=center;verticalAlign=middle;resizable=0;points=[];autosize=1;strokeColor=none;fillColor=none;fontFamily=Times New Roman;" parent="WIyWlLk6GJQsqaUBKTNV-1" vertex="1">
          <mxGeometry x="635" y="638" width="30" height="30" as="geometry" />
        </mxCell>
        <mxCell id="8xYL1COik4NsorKuCAte-88" value="Resulta_em" style="rhombus;whiteSpace=wrap;html=1;fontFamily=Times New Roman;" parent="WIyWlLk6GJQsqaUBKTNV-1" vertex="1">
          <mxGeometry x="405" y="725" width="80" height="50" as="geometry" />
        </mxCell>
        <mxCell id="8xYL1COik4NsorKuCAte-93" value="" style="endArrow=none;html=1;rounded=0;entryX=0.5;entryY=1;entryDx=0;entryDy=0;exitX=0.5;exitY=0;exitDx=0;exitDy=0;" parent="WIyWlLk6GJQsqaUBKTNV-1" source="8xYL1COik4NsorKuCAte-40" target="8xYL1COik4NsorKuCAte-53" edge="1">
          <mxGeometry width="50" height="50" relative="1" as="geometry">
            <mxPoint x="540" y="780" as="sourcePoint" />
            <mxPoint x="590" y="730" as="targetPoint" />
          </mxGeometry>
        </mxCell>
        <mxCell id="8xYL1COik4NsorKuCAte-95" value="" style="endArrow=none;html=1;rounded=0;entryX=0;entryY=1;entryDx=0;entryDy=0;exitX=1;exitY=0.5;exitDx=0;exitDy=0;" parent="WIyWlLk6GJQsqaUBKTNV-1" source="8xYL1COik4NsorKuCAte-52" target="8xYL1COik4NsorKuCAte-25" edge="1">
          <mxGeometry width="50" height="50" relative="1" as="geometry">
            <mxPoint x="540" y="780" as="sourcePoint" />
            <mxPoint x="590" y="730" as="targetPoint" />
          </mxGeometry>
        </mxCell>
        <mxCell id="8xYL1COik4NsorKuCAte-97" value="" style="shape=link;html=1;rounded=0;exitX=1;exitY=0;exitDx=0;exitDy=0;entryX=0;entryY=0.5;entryDx=0;entryDy=0;" parent="WIyWlLk6GJQsqaUBKTNV-1" source="8xYL1COik4NsorKuCAte-63" target="8xYL1COik4NsorKuCAte-52" edge="1">
          <mxGeometry width="100" relative="1" as="geometry">
            <mxPoint x="520" y="750" as="sourcePoint" />
            <mxPoint x="620" y="750" as="targetPoint" />
          </mxGeometry>
        </mxCell>
        <mxCell id="8xYL1COik4NsorKuCAte-101" value="" style="endArrow=none;html=1;rounded=0;exitX=1;exitY=0.5;exitDx=0;exitDy=0;" parent="WIyWlLk6GJQsqaUBKTNV-1" source="8xYL1COik4NsorKuCAte-88" edge="1">
          <mxGeometry width="50" height="50" relative="1" as="geometry">
            <mxPoint x="540" y="780" as="sourcePoint" />
            <mxPoint x="550" y="660" as="targetPoint" />
          </mxGeometry>
        </mxCell>
        <mxCell id="8xYL1COik4NsorKuCAte-102" value="Entrega" style="rounded=0;whiteSpace=wrap;html=1;fontFamily=Times New Roman;" parent="WIyWlLk6GJQsqaUBKTNV-1" vertex="1">
          <mxGeometry x="389" y="895" width="120" height="50" as="geometry" />
        </mxCell>
        <mxCell id="8xYL1COik4NsorKuCAte-103" value="Endereço_entrega" style="ellipse;whiteSpace=wrap;html=1;fontFamily=Times New Roman;" parent="WIyWlLk6GJQsqaUBKTNV-1" vertex="1">
          <mxGeometry x="270" y="1060" width="90" height="40" as="geometry" />
        </mxCell>
        <mxCell id="8xYL1COik4NsorKuCAte-104" value="Data_prevista" style="ellipse;whiteSpace=wrap;html=1;fontFamily=Times New Roman;" parent="WIyWlLk6GJQsqaUBKTNV-1" vertex="1">
          <mxGeometry x="140" y="1030" width="90" height="40" as="geometry" />
        </mxCell>
        <mxCell id="8xYL1COik4NsorKuCAte-105" value="Rastreamento" style="ellipse;whiteSpace=wrap;html=1;fontFamily=Times New Roman;fontStyle=4" parent="WIyWlLk6GJQsqaUBKTNV-1" vertex="1">
          <mxGeometry x="50" y="960" width="90" height="40" as="geometry" />
        </mxCell>
        <mxCell id="8xYL1COik4NsorKuCAte-106" value="" style="endArrow=none;html=1;rounded=0;entryX=0.7;entryY=0.059;entryDx=0;entryDy=0;exitX=0.75;exitY=1;exitDx=0;exitDy=0;entryPerimeter=0;" parent="WIyWlLk6GJQsqaUBKTNV-1" source="8xYL1COik4NsorKuCAte-102" target="8xYL1COik4NsorKuCAte-103" edge="1">
          <mxGeometry width="50" height="50" relative="1" as="geometry">
            <mxPoint x="470" y="950" as="sourcePoint" />
            <mxPoint x="505" y="755" as="targetPoint" />
          </mxGeometry>
        </mxCell>
        <mxCell id="8xYL1COik4NsorKuCAte-107" value="" style="endArrow=none;html=1;rounded=0;entryX=0;entryY=0;entryDx=0;entryDy=0;exitX=0.5;exitY=1;exitDx=0;exitDy=0;" parent="WIyWlLk6GJQsqaUBKTNV-1" source="8xYL1COik4NsorKuCAte-102" target="8xYL1COik4NsorKuCAte-104" edge="1">
          <mxGeometry width="50" height="50" relative="1" as="geometry">
            <mxPoint x="455" y="805" as="sourcePoint" />
            <mxPoint x="505" y="755" as="targetPoint" />
          </mxGeometry>
        </mxCell>
        <mxCell id="8xYL1COik4NsorKuCAte-108" value="" style="endArrow=none;html=1;rounded=0;exitX=0.5;exitY=0;exitDx=0;exitDy=0;entryX=0.25;entryY=1;entryDx=0;entryDy=0;" parent="WIyWlLk6GJQsqaUBKTNV-1" source="8xYL1COik4NsorKuCAte-105" target="8xYL1COik4NsorKuCAte-102" edge="1">
          <mxGeometry width="50" height="50" relative="1" as="geometry">
            <mxPoint x="455" y="805" as="sourcePoint" />
            <mxPoint x="505" y="755" as="targetPoint" />
          </mxGeometry>
        </mxCell>
        <mxCell id="8xYL1COik4NsorKuCAte-109" value="1" style="text;html=1;align=center;verticalAlign=middle;resizable=0;points=[];autosize=1;strokeColor=none;fillColor=none;fontFamily=Times New Roman;" parent="WIyWlLk6GJQsqaUBKTNV-1" vertex="1">
          <mxGeometry x="465" y="718" width="30" height="30" as="geometry" />
        </mxCell>
        <mxCell id="8xYL1COik4NsorKuCAte-110" value="1" style="text;html=1;align=center;verticalAlign=middle;resizable=0;points=[];autosize=1;strokeColor=none;fillColor=none;fontFamily=Times New Roman;" parent="WIyWlLk6GJQsqaUBKTNV-1" vertex="1">
          <mxGeometry x="385" y="758" width="30" height="30" as="geometry" />
        </mxCell>
        <mxCell id="bTIJlzL3mHU9nBTZ3P-0-1" value="" style="endArrow=none;html=1;rounded=0;entryX=0;entryY=0.5;entryDx=0;entryDy=0;exitX=0.25;exitY=0;exitDx=0;exitDy=0;" parent="WIyWlLk6GJQsqaUBKTNV-1" source="8xYL1COik4NsorKuCAte-102" target="8xYL1COik4NsorKuCAte-88" edge="1">
          <mxGeometry width="50" height="50" relative="1" as="geometry">
            <mxPoint x="380" y="900" as="sourcePoint" />
            <mxPoint x="430" y="850" as="targetPoint" />
          </mxGeometry>
        </mxCell>
        <mxCell id="8LhEklde-UnoGQ6GxagM-13" value="Possui" style="rhombus;whiteSpace=wrap;html=1;fontFamily=Times New Roman;" vertex="1" parent="WIyWlLk6GJQsqaUBKTNV-1">
          <mxGeometry x="300" y="410" width="80" height="50" as="geometry" />
        </mxCell>
        <mxCell id="8LhEklde-UnoGQ6GxagM-14" value="Assinatura_premium" style="rounded=0;whiteSpace=wrap;html=1;fontFamily=Times New Roman;" vertex="1" parent="WIyWlLk6GJQsqaUBKTNV-1">
          <mxGeometry x="285" y="270" width="120" height="50" as="geometry" />
        </mxCell>
        <mxCell id="8LhEklde-UnoGQ6GxagM-17" value="&lt;font face=&quot;Times New Roman&quot;&gt;ID_Cliente&lt;/font&gt;" style="ellipse;whiteSpace=wrap;html=1;fontStyle=4" vertex="1" parent="WIyWlLk6GJQsqaUBKTNV-1">
          <mxGeometry x="170" y="160" width="90" height="40" as="geometry" />
        </mxCell>
        <mxCell id="8LhEklde-UnoGQ6GxagM-19" value="" style="endArrow=none;html=1;rounded=0;entryX=1;entryY=1;entryDx=0;entryDy=0;exitX=0.25;exitY=0;exitDx=0;exitDy=0;" edge="1" parent="WIyWlLk6GJQsqaUBKTNV-1" source="8LhEklde-UnoGQ6GxagM-14" target="8LhEklde-UnoGQ6GxagM-17">
          <mxGeometry width="50" height="50" relative="1" as="geometry">
            <mxPoint x="130" y="390" as="sourcePoint" />
            <mxPoint x="180" y="340" as="targetPoint" />
          </mxGeometry>
        </mxCell>
        <mxCell id="8LhEklde-UnoGQ6GxagM-20" value="&lt;font face=&quot;Times New Roman&quot;&gt;Tipo_assinatura&lt;/font&gt;" style="ellipse;whiteSpace=wrap;html=1;fontStyle=0" vertex="1" parent="WIyWlLk6GJQsqaUBKTNV-1">
          <mxGeometry x="140" y="210" width="90" height="40" as="geometry" />
        </mxCell>
        <mxCell id="8LhEklde-UnoGQ6GxagM-21" value="" style="endArrow=none;html=1;rounded=0;entryX=1;entryY=1;entryDx=0;entryDy=0;exitX=0;exitY=0.25;exitDx=0;exitDy=0;" edge="1" parent="WIyWlLk6GJQsqaUBKTNV-1" source="8LhEklde-UnoGQ6GxagM-14" target="8LhEklde-UnoGQ6GxagM-20">
          <mxGeometry width="50" height="50" relative="1" as="geometry">
            <mxPoint x="130" y="390" as="sourcePoint" />
            <mxPoint x="180" y="340" as="targetPoint" />
          </mxGeometry>
        </mxCell>
        <mxCell id="8LhEklde-UnoGQ6GxagM-22" value="&lt;font face=&quot;Times New Roman&quot;&gt;Data_adesão&lt;/font&gt;" style="ellipse;whiteSpace=wrap;html=1;fontStyle=0" vertex="1" parent="WIyWlLk6GJQsqaUBKTNV-1">
          <mxGeometry x="285" y="140" width="90" height="40" as="geometry" />
        </mxCell>
        <mxCell id="8LhEklde-UnoGQ6GxagM-23" value="&lt;font face=&quot;Times New Roman&quot;&gt;Data_expiração&lt;/font&gt;" style="ellipse;whiteSpace=wrap;html=1;fontStyle=0" vertex="1" parent="WIyWlLk6GJQsqaUBKTNV-1">
          <mxGeometry x="389" y="150" width="90" height="40" as="geometry" />
        </mxCell>
        <mxCell id="8LhEklde-UnoGQ6GxagM-24" value="" style="endArrow=none;html=1;rounded=0;entryX=0.5;entryY=1;entryDx=0;entryDy=0;exitX=0.5;exitY=0;exitDx=0;exitDy=0;" edge="1" parent="WIyWlLk6GJQsqaUBKTNV-1" source="8LhEklde-UnoGQ6GxagM-14" target="8LhEklde-UnoGQ6GxagM-22">
          <mxGeometry width="50" height="50" relative="1" as="geometry">
            <mxPoint x="130" y="390" as="sourcePoint" />
            <mxPoint x="180" y="340" as="targetPoint" />
          </mxGeometry>
        </mxCell>
        <mxCell id="8LhEklde-UnoGQ6GxagM-25" value="" style="endArrow=none;html=1;rounded=0;entryX=0;entryY=1;entryDx=0;entryDy=0;exitX=0.75;exitY=0;exitDx=0;exitDy=0;" edge="1" parent="WIyWlLk6GJQsqaUBKTNV-1" source="8LhEklde-UnoGQ6GxagM-14" target="8LhEklde-UnoGQ6GxagM-23">
          <mxGeometry width="50" height="50" relative="1" as="geometry">
            <mxPoint x="130" y="390" as="sourcePoint" />
            <mxPoint x="180" y="340" as="targetPoint" />
          </mxGeometry>
        </mxCell>
        <mxCell id="8LhEklde-UnoGQ6GxagM-26" value="" style="endArrow=none;html=1;rounded=0;" edge="1" parent="WIyWlLk6GJQsqaUBKTNV-1">
          <mxGeometry width="50" height="50" relative="1" as="geometry">
            <mxPoint x="270" y="578" as="sourcePoint" />
            <mxPoint x="270" y="258" as="targetPoint" />
          </mxGeometry>
        </mxCell>
        <mxCell id="8LhEklde-UnoGQ6GxagM-27" value="" style="endArrow=none;html=1;rounded=0;" edge="1" parent="WIyWlLk6GJQsqaUBKTNV-1">
          <mxGeometry width="50" height="50" relative="1" as="geometry">
            <mxPoint x="270" y="260" as="sourcePoint" />
            <mxPoint x="420" y="260" as="targetPoint" />
          </mxGeometry>
        </mxCell>
        <mxCell id="8LhEklde-UnoGQ6GxagM-28" value="" style="endArrow=none;html=1;rounded=0;" edge="1" parent="WIyWlLk6GJQsqaUBKTNV-1">
          <mxGeometry width="50" height="50" relative="1" as="geometry">
            <mxPoint x="420" y="580" as="sourcePoint" />
            <mxPoint x="420" y="260" as="targetPoint" />
          </mxGeometry>
        </mxCell>
        <mxCell id="8LhEklde-UnoGQ6GxagM-29" value="" style="endArrow=none;html=1;rounded=0;" edge="1" parent="WIyWlLk6GJQsqaUBKTNV-1">
          <mxGeometry width="50" height="50" relative="1" as="geometry">
            <mxPoint x="270" y="580" as="sourcePoint" />
            <mxPoint x="420" y="580" as="targetPoint" />
          </mxGeometry>
        </mxCell>
        <mxCell id="8LhEklde-UnoGQ6GxagM-33" value="" style="endArrow=none;html=1;rounded=0;entryX=0.5;entryY=1;entryDx=0;entryDy=0;exitX=0.5;exitY=0;exitDx=0;exitDy=0;" edge="1" parent="WIyWlLk6GJQsqaUBKTNV-1" source="8LhEklde-UnoGQ6GxagM-13" target="8LhEklde-UnoGQ6GxagM-14">
          <mxGeometry width="50" height="50" relative="1" as="geometry">
            <mxPoint x="130" y="390" as="sourcePoint" />
            <mxPoint x="180" y="340" as="targetPoint" />
          </mxGeometry>
        </mxCell>
        <mxCell id="8LhEklde-UnoGQ6GxagM-34" value="" style="endArrow=none;html=1;rounded=0;entryX=0.5;entryY=1;entryDx=0;entryDy=0;exitX=0.25;exitY=0;exitDx=0;exitDy=0;" edge="1" parent="WIyWlLk6GJQsqaUBKTNV-1" source="8xYL1COik4NsorKuCAte-2" target="8LhEklde-UnoGQ6GxagM-13">
          <mxGeometry width="50" height="50" relative="1" as="geometry">
            <mxPoint x="130" y="390" as="sourcePoint" />
            <mxPoint x="180" y="340" as="targetPoint" />
          </mxGeometry>
        </mxCell>
        <mxCell id="8LhEklde-UnoGQ6GxagM-35" value="1" style="text;html=1;align=center;verticalAlign=middle;resizable=0;points=[];autosize=1;strokeColor=none;fillColor=none;fontFamily=Times New Roman;" vertex="1" parent="WIyWlLk6GJQsqaUBKTNV-1">
          <mxGeometry x="340" y="390" width="30" height="30" as="geometry" />
        </mxCell>
        <mxCell id="8LhEklde-UnoGQ6GxagM-36" value="1" style="text;html=1;align=center;verticalAlign=middle;resizable=0;points=[];autosize=1;strokeColor=none;fillColor=none;fontFamily=Times New Roman;" vertex="1" parent="WIyWlLk6GJQsqaUBKTNV-1">
          <mxGeometry x="300" y="450" width="30" height="30" as="geometry" />
        </mxCell>
        <mxCell id="8LhEklde-UnoGQ6GxagM-38" value="Direito_à" style="rhombus;whiteSpace=wrap;html=1;fontFamily=Times New Roman;" vertex="1" parent="WIyWlLk6GJQsqaUBKTNV-1">
          <mxGeometry x="495" y="250" width="80" height="50" as="geometry" />
        </mxCell>
        <mxCell id="8LhEklde-UnoGQ6GxagM-39" value="" style="endArrow=none;html=1;rounded=0;entryX=0;entryY=0.5;entryDx=0;entryDy=0;" edge="1" parent="WIyWlLk6GJQsqaUBKTNV-1" target="8LhEklde-UnoGQ6GxagM-38">
          <mxGeometry width="50" height="50" relative="1" as="geometry">
            <mxPoint x="420" y="360" as="sourcePoint" />
            <mxPoint x="180" y="340" as="targetPoint" />
          </mxGeometry>
        </mxCell>
        <mxCell id="8LhEklde-UnoGQ6GxagM-40" value="Desconto" style="rounded=0;whiteSpace=wrap;html=1;fontFamily=Times New Roman;" vertex="1" parent="WIyWlLk6GJQsqaUBKTNV-1">
          <mxGeometry x="600" y="160" width="120" height="50" as="geometry" />
        </mxCell>
        <mxCell id="8LhEklde-UnoGQ6GxagM-41" value="&lt;font face=&quot;Times New Roman&quot;&gt;Código_desconto&lt;/font&gt;" style="ellipse;whiteSpace=wrap;html=1;fontStyle=4" vertex="1" parent="WIyWlLk6GJQsqaUBKTNV-1">
          <mxGeometry x="580" y="20" width="90" height="40" as="geometry" />
        </mxCell>
        <mxCell id="8LhEklde-UnoGQ6GxagM-42" value="" style="endArrow=none;html=1;rounded=0;entryX=0.5;entryY=1;entryDx=0;entryDy=0;exitX=0.25;exitY=0;exitDx=0;exitDy=0;" edge="1" parent="WIyWlLk6GJQsqaUBKTNV-1" source="8LhEklde-UnoGQ6GxagM-40" target="8LhEklde-UnoGQ6GxagM-41">
          <mxGeometry width="50" height="50" relative="1" as="geometry">
            <mxPoint x="130" y="390" as="sourcePoint" />
            <mxPoint x="180" y="340" as="targetPoint" />
          </mxGeometry>
        </mxCell>
        <mxCell id="8LhEklde-UnoGQ6GxagM-43" value="&lt;font face=&quot;Times New Roman&quot;&gt;Porcentagem&lt;/font&gt;" style="ellipse;whiteSpace=wrap;html=1;fontStyle=0" vertex="1" parent="WIyWlLk6GJQsqaUBKTNV-1">
          <mxGeometry x="690" y="30" width="90" height="40" as="geometry" />
        </mxCell>
        <mxCell id="8LhEklde-UnoGQ6GxagM-44" value="" style="endArrow=none;html=1;rounded=0;entryX=0.5;entryY=1;entryDx=0;entryDy=0;exitX=0.75;exitY=0;exitDx=0;exitDy=0;" edge="1" parent="WIyWlLk6GJQsqaUBKTNV-1" source="8LhEklde-UnoGQ6GxagM-40" target="8LhEklde-UnoGQ6GxagM-43">
          <mxGeometry width="50" height="50" relative="1" as="geometry">
            <mxPoint x="130" y="390" as="sourcePoint" />
            <mxPoint x="180" y="340" as="targetPoint" />
          </mxGeometry>
        </mxCell>
        <mxCell id="8LhEklde-UnoGQ6GxagM-45" value="&lt;font face=&quot;Times New Roman&quot;&gt;Data_início&lt;/font&gt;" style="ellipse;whiteSpace=wrap;html=1;fontStyle=0" vertex="1" parent="WIyWlLk6GJQsqaUBKTNV-1">
          <mxGeometry x="510" y="60" width="90" height="40" as="geometry" />
        </mxCell>
        <mxCell id="8LhEklde-UnoGQ6GxagM-46" value="&lt;font face=&quot;Times New Roman&quot;&gt;Data_termino&lt;/font&gt;" style="ellipse;whiteSpace=wrap;html=1;fontStyle=0" vertex="1" parent="WIyWlLk6GJQsqaUBKTNV-1">
          <mxGeometry x="720" y="100" width="90" height="40" as="geometry" />
        </mxCell>
        <mxCell id="8LhEklde-UnoGQ6GxagM-47" value="" style="endArrow=none;html=1;rounded=0;entryX=0.5;entryY=1;entryDx=0;entryDy=0;exitX=0;exitY=0;exitDx=0;exitDy=0;" edge="1" parent="WIyWlLk6GJQsqaUBKTNV-1" source="8LhEklde-UnoGQ6GxagM-40" target="8LhEklde-UnoGQ6GxagM-45">
          <mxGeometry width="50" height="50" relative="1" as="geometry">
            <mxPoint x="130" y="390" as="sourcePoint" />
            <mxPoint x="180" y="340" as="targetPoint" />
          </mxGeometry>
        </mxCell>
        <mxCell id="8LhEklde-UnoGQ6GxagM-48" value="" style="endArrow=none;html=1;rounded=0;entryX=0.333;entryY=1.036;entryDx=0;entryDy=0;entryPerimeter=0;exitX=1;exitY=0.5;exitDx=0;exitDy=0;" edge="1" parent="WIyWlLk6GJQsqaUBKTNV-1" source="8LhEklde-UnoGQ6GxagM-40" target="8LhEklde-UnoGQ6GxagM-46">
          <mxGeometry width="50" height="50" relative="1" as="geometry">
            <mxPoint x="130" y="390" as="sourcePoint" />
            <mxPoint x="180" y="340" as="targetPoint" />
          </mxGeometry>
        </mxCell>
        <mxCell id="8LhEklde-UnoGQ6GxagM-49" value="" style="endArrow=none;html=1;rounded=0;entryX=0.25;entryY=1;entryDx=0;entryDy=0;exitX=1;exitY=0.5;exitDx=0;exitDy=0;" edge="1" parent="WIyWlLk6GJQsqaUBKTNV-1" source="8LhEklde-UnoGQ6GxagM-38" target="8LhEklde-UnoGQ6GxagM-40">
          <mxGeometry width="50" height="50" relative="1" as="geometry">
            <mxPoint x="130" y="390" as="sourcePoint" />
            <mxPoint x="180" y="340" as="targetPoint" />
          </mxGeometry>
        </mxCell>
        <mxCell id="8LhEklde-UnoGQ6GxagM-50" value="N" style="text;html=1;align=center;verticalAlign=middle;resizable=0;points=[];autosize=1;strokeColor=none;fillColor=none;fontFamily=Times New Roman;" vertex="1" parent="WIyWlLk6GJQsqaUBKTNV-1">
          <mxGeometry x="550" y="240" width="30" height="30" as="geometry" />
        </mxCell>
        <mxCell id="8LhEklde-UnoGQ6GxagM-51" value="1" style="text;html=1;align=center;verticalAlign=middle;resizable=0;points=[];autosize=1;strokeColor=none;fillColor=none;fontFamily=Times New Roman;" vertex="1" parent="WIyWlLk6GJQsqaUBKTNV-1">
          <mxGeometry x="480" y="280" width="30" height="30" as="geometry" />
        </mxCell>
      </root>
    </mxGraphModel>
  </diagram>
</mxfile>
